<?xml version="1.0" encoding="utf-8"?>
<!-- Generator: Adobe Illustrator 24.3.0, SVG Export Plug-In . SVG Version: 6.00 Build 0)  -->
<svg version="1.1" id="Слой_1" xmlns="http://www.w3.org/2000/svg" xmlns:xlink="http://www.w3.org/1999/xlink" x="0px" y="0px"
	 viewBox="0 0 200 200" style="enable-background:new 0 0 200 200;" xml:space="preserve">
<style type="text/css">
	.st0{fill:#9F1A16;}
	.st1{fill:#BF1D1D;}
</style>
<path class="st0" d="M200.2,99.7c0,35-18,65.8-45.3,83.7c-15.7,10.3-34.5,16.3-54.7,16.3c-20.2,0-39-6-54.8-16.3
	C18.2,165.5,0.2,134.7,0.2,99.7c0-55.2,44.8-100,100-100S200.2,44.5,200.2,99.7z"/>
<g>
	<path class="st1" d="M154.9,183.4c-15.7,10.3-34.5,16.3-54.7,16.3c-20.2,0-39-6-54.8-16.3c0.2-0.6,0.5-1.1,0.7-1.6
		c3.1-7,7.4-13.2,12.5-18.8c4.9-5.3,10.5-9.9,15.8-14.7c1.5-1.3,2.5-1.4,4.3-0.6c8.2,4,16.8,5.5,25.9,4.7c5.6-0.5,11-2,16.1-4.3
		c0.8-0.3,1.6-0.7,2.3-1.1c0.5-0.3,0.9-0.3,1.4,0.1c3.9,3.5,7.9,6.9,11.8,10.4c4.2,3.8,7.9,7.9,11.2,12.5
		C150.5,174.2,153,178.7,154.9,183.4z"/>
	<path class="st1" d="M100.1,138.5c-20.9-0.1-37.9-17-37.9-37.9c0-21.1,17-38.1,38-38.1c21.2,0,38.3,17.3,38,38.7
		C137.8,121.6,121.1,138.5,100.1,138.5z"/>
</g>
</svg>
