<?xml version="1.0" encoding="utf-8"?>
<!-- Generator: Adobe Illustrator 24.3.0, SVG Export Plug-In . SVG Version: 6.00 Build 0)  -->
<svg version="1.1" id="Слой_1" xmlns="http://www.w3.org/2000/svg" xmlns:xlink="http://www.w3.org/1999/xlink" x="0px" y="0px"
	 viewBox="0 0 200 200" style="enable-background:new 0 0 200 200;" xml:space="preserve">
<style type="text/css">
	.st0{fill:#9F1A16;}
	.st1{fill:#BF1D1D;}
</style>
<circle class="st0" cx="100" cy="100" r="100"/>
<g>
	<path class="st1" d="M147.6,139.2c-31.8,0-63.5,0-95.3,0c0-1.8,0-3.5,0-5.3c0-0.3,0.4-0.7,0.7-1c3.2-3.2,6.4-6.5,9.7-9.7
		c0.6-0.6,0.8-1.2,0.8-2c0-9.6,0-19.2,0-28.9c0-6.2,1.2-12,4-17.5c4.8-9,12.1-14.9,21.7-18c0.5-0.2,0.9-0.3,1.4-0.4
		c0.6-0.1,0.9-0.5,0.8-1.1c0-1.2,0-2.5,0.1-3.7c0.4-4.3,3.8-7.5,8.1-7.8c3.7-0.2,7.6,2.8,8.4,6.7c0.3,1.4,0.2,2.9,0.2,4.3
		c0,1,0.3,1.4,1.2,1.6c9.4,2.7,16.8,8.1,21.9,16.6c3.5,5.9,5,12.4,5,19.2c0,9.6,0,19.2,0,28.7c0,0.9,0.3,1.6,0.9,2.2
		c3.2,3.2,6.4,6.4,9.6,9.6c0.4,0.4,0.6,1,0.7,1.6C147.7,136,147.6,137.6,147.6,139.2z"/>
	<path class="st1" d="M88.9,151.2c7.5,0,14.9,0,22.2,0c-0.1,5-3.7,11.1-9.9,11.2C93.4,162.6,88.7,156.7,88.9,151.2z"/>
</g>
</svg>
